<?xml version="1.0"?>
<svg xmlns="http://www.w3.org/2000/svg" xmlns:xlink="http://www.w3.org/1999/xlink" version="1.1" id="Capa_1" x="0px" y="0px" viewBox="0 0 370 370" style="enable-background:new 0 0 370 370;" xml:space="preserve" width="512px" height="512px" class=""><g><g>
	<path d="M274.221,284.781c40.578-28.245,67.146-75.225,67.146-128.415C341.367,70.008,271.358,0,185,0   C98.643,0,28.633,70.008,28.633,156.365c0,53.19,26.568,100.17,67.146,128.415l-37.202,38.376   c-2.58,3.626-3.972,7.965-3.972,12.416v13.031c0,11.817,9.58,21.396,21.396,21.396h217.998c11.815,0,21.395-9.579,21.395-21.396   v-13.031c0-4.451-1.392-8.79-3.972-12.416L274.221,284.781z M185,83.383c40.309,0,72.983,32.676,72.983,72.982   c0,40.307-32.674,72.983-72.983,72.983s-72.982-32.676-72.982-72.983C112.018,116.059,144.691,83.383,185,83.383z M101.952,332.416   l28.549-29.454c16.969,6.314,35.328,9.769,54.499,9.769s37.53-3.455,54.499-9.769l28.549,29.454H101.952z" data-original="#000000" class="active-path" data-old_color="#FFC900" fill="#FF00BC"/>
	<path d="M185,201.689c25.033,0,45.322-20.291,45.322-45.324c0-16.152-8.456-30.32-21.177-38.349   c-0.274,7.068-10.968,12.752-24.145,12.752c-13.176,0-23.871-5.684-24.145-12.752c-12.721,8.028-21.177,22.197-21.177,38.349   C139.678,181.398,159.967,201.689,185,201.689z" data-original="#000000" class="active-path" data-old_color="#FFC900" fill="#FF00BC"/>
</g></g> </svg>
